<svg width="12" height="2" viewBox="0 0 12 2" fill="none" xmlns="http://www.w3.org/2000/svg">
<g clip-path="url(#clip0_207_170)">
<mask id="mask0_207_170" style="mask-type:luminance" maskUnits="userSpaceOnUse" x="9" y="0" width="3" height="2">
<path d="M9.6228 0H11.6211V1.99H9.6228V0Z" fill="white"/>
</mask>
<g mask="url(#mask0_207_170)">
<mask id="mask1_207_170" style="mask-type:luminance" maskUnits="userSpaceOnUse" x="9" y="0" width="3" height="2">
<path d="M9.6228 0H11.6211V1.99H9.6228V0Z" fill="white"/>
</mask>
<g mask="url(#mask1_207_170)">
<path fill-rule="evenodd" clip-rule="evenodd" d="M11.621 1.53377L11.6194 1.53533C11.2615 2.02768 10.5725 2.13738 10.0793 1.78057L10.0777 1.77901C9.58513 1.42118 9.4753 0.732101 9.8322 0.238867L9.8335 0.237305L9.89339 0.28052L9.95564 0.323215V0.324777C9.6457 0.750335 9.73885 1.3465 10.1639 1.65717H10.1655C10.5911 1.96697 11.1871 1.8738 11.4978 1.44891V1.44708L11.5577 1.49056L11.621 1.53377Z" fill="#0D0D0D"/>
</g>
<mask id="mask2_207_170" style="mask-type:luminance" maskUnits="userSpaceOnUse" x="9" y="0" width="3" height="2">
<path d="M9.6228 0H11.6211V1.99H9.6228V0Z" fill="white"/>
</mask>
<g mask="url(#mask2_207_170)">
<path fill-rule="evenodd" clip-rule="evenodd" d="M10.5854 0.735858C10.5249 0.792983 10.5046 0.880997 10.5342 0.958862C10.5638 1.03673 10.6374 1.0891 10.7206 1.09156C10.8038 1.09401 10.8804 1.04607 10.9145 0.970087C10.9487 0.894106 10.9336 0.805048 10.8765 0.744446C10.8391 0.704658 10.7874 0.681388 10.7328 0.679777C10.6782 0.678166 10.6252 0.69834 10.5854 0.735858Z" fill="#0D0D0D"/>
</g>
<mask id="mask3_207_170" style="mask-type:luminance" maskUnits="userSpaceOnUse" x="9" y="0" width="3" height="2">
<path d="M9.6228 0H11.6211V1.99H9.6228V0Z" fill="white"/>
</mask>
<g mask="url(#mask3_207_170)">
<path fill-rule="evenodd" clip-rule="evenodd" d="M10.7942 1.77184C10.3085 1.80295 9.88822 1.43757 9.85146 0.952302C9.81465 0.467036 10.1751 0.0424685 10.6599 0L10.6698 0.125481C10.2498 0.157185 9.93504 0.523345 9.96676 0.943322C9.99847 1.3633 10.3646 1.67806 10.7846 1.64636L10.7942 1.77184Z" fill="#0FE0EC"/>
</g>
<mask id="mask4_207_170" style="mask-type:luminance" maskUnits="userSpaceOnUse" x="9" y="0" width="3" height="2">
<path d="M9.6228 0H11.6211V1.99H9.6228V0Z" fill="white"/>
</mask>
<g mask="url(#mask4_207_170)">
<path fill-rule="evenodd" clip-rule="evenodd" d="M10.4103 1.40537C10.2221 1.29357 10.1086 1.08932 10.1129 0.870516C10.1172 0.651716 10.2388 0.452112 10.4312 0.347857C10.6236 0.243602 10.8572 0.250771 11.0429 0.36663L10.9893 0.454103C10.7511 0.314543 10.4451 0.391752 10.3017 0.627569C10.1582 0.863384 10.2304 1.17065 10.4639 1.31789L10.4103 1.40537Z" fill="#0D0D0D"/>
</g>
<mask id="mask5_207_170" style="mask-type:luminance" maskUnits="userSpaceOnUse" x="9" y="0" width="3" height="2">
<path d="M9.6228 0H11.6211V1.99H9.6228V0Z" fill="white"/>
</mask>
<g mask="url(#mask5_207_170)">
<path fill-rule="evenodd" clip-rule="evenodd" d="M10.4403 0.749799L10.407 0.727672L10.3716 0.710229C10.4683 0.514134 10.7057 0.433507 10.9019 0.530078H10.904C11.0989 0.627383 11.1785 0.864062 11.0818 1.05934V1.06116L11.0802 1.0635L11.0451 1.04294L11.0097 1.02549C11.0869 0.868627 11.0225 0.678818 10.8657 0.601409C10.7089 0.524531 10.5195 0.589039 10.4422 0.745632V0.747715L10.4403 0.749799Z" fill="#0FE0EC"/>
</g>
</g>
<path d="M1.05144 0.290029V0.454872H0.628187V1.84268H0.425476V0.454872H0V0.290029H1.05144ZM1.65627 0.657584C1.72236 0.618974 1.80292 0.599668 1.89797 0.599668V0.809066H1.84451C1.61729 0.809066 1.50368 0.932328 1.50368 1.17885V1.84268H1.30097V0.621944H1.50368V0.820204C1.53932 0.750405 1.59018 0.696196 1.65627 0.657584ZM2.13184 0.899282C2.18233 0.804981 2.25176 0.731842 2.34012 0.679866C2.42848 0.627883 2.52687 0.601895 2.63528 0.601895C2.74221 0.601895 2.83502 0.624917 2.91373 0.670954C2.99244 0.716991 3.05111 0.774907 3.08972 0.844706V0.621944H3.29466V1.84268H3.08972V1.61546C3.04962 1.68675 2.98984 1.74578 2.91039 1.79256C2.83094 1.83934 2.73849 1.86273 2.63305 1.86273C2.52464 1.86273 2.42662 1.836 2.33901 1.78254C2.25139 1.72907 2.18233 1.65408 2.13184 1.55754C2.08135 1.46102 2.0561 1.35112 2.0561 1.22786C2.0561 1.10311 2.08135 0.993589 2.13184 0.899282ZM3.03402 0.989503C2.9969 0.92119 2.94677 0.868841 2.88366 0.832455C2.82054 0.796069 2.75112 0.777879 2.67537 0.777879C2.59964 0.777879 2.53058 0.795696 2.46821 0.831342C2.40584 0.866981 2.35609 0.918958 2.31896 0.987277C2.28183 1.05559 2.26326 1.13578 2.26326 1.22786C2.26326 1.32142 2.28183 1.40273 2.31896 1.47178C2.35609 1.54084 2.40584 1.59356 2.46821 1.62994C2.53058 1.66633 2.59964 1.68452 2.67537 1.68452C2.75112 1.68452 2.82054 1.66633 2.88366 1.62994C2.94677 1.59356 2.9969 1.54084 3.03402 1.47178C3.07115 1.40273 3.08972 1.32216 3.08972 1.23009C3.08972 1.13801 3.07115 1.05782 3.03402 0.989503ZM3.63776 0.899282C3.68826 0.804981 3.75843 0.731842 3.84827 0.679866C3.93812 0.627883 4.04097 0.601895 4.15681 0.601895C4.3068 0.601895 4.43043 0.638281 4.5277 0.711046C4.62498 0.783818 4.6892 0.884804 4.72039 1.01401H4.50208C4.48129 0.939753 4.44082 0.881092 4.38068 0.838021C4.32053 0.794956 4.24591 0.77342 4.15681 0.77342C4.04097 0.77342 3.94741 0.813146 3.87612 0.892603C3.80484 0.972053 3.7692 1.08454 3.7692 1.23009C3.7692 1.37711 3.80484 1.49072 3.87612 1.57091C3.94741 1.6511 4.04097 1.6912 4.15681 1.6912C4.24591 1.6912 4.32016 1.67041 4.37957 1.62883C4.43897 1.58725 4.47981 1.52784 4.50208 1.45062H4.72039C4.68772 1.57537 4.62238 1.67524 4.52436 1.75024C4.42634 1.82523 4.30382 1.86273 4.15681 1.86273C4.04097 1.86273 3.93812 1.83674 3.84827 1.78476C3.75843 1.73279 3.68826 1.65928 3.63776 1.56423C3.58727 1.46918 3.56203 1.3578 3.56203 1.23009C3.56203 1.10385 3.58727 0.993589 3.63776 0.899282ZM5.23719 0.789017V1.50854C5.23719 1.56794 5.24981 1.60989 5.27505 1.6344C5.3003 1.6589 5.34411 1.67115 5.40649 1.67115H5.55574V1.84268H5.37307C5.2602 1.84268 5.17555 1.81669 5.11913 1.76471C5.06269 1.71274 5.03448 1.62734 5.03448 1.50854V0.789017H4.87631V0.621944H5.03448V0.314533H5.23719V0.621944H5.55574V0.789017H5.23719ZM5.80749 0.383589C5.78076 0.356857 5.76739 0.324185 5.76739 0.285573C5.76739 0.246961 5.78076 0.214289 5.80749 0.187558C5.83422 0.160826 5.86689 0.147461 5.9055 0.147461C5.94263 0.147461 5.97419 0.160826 6.00018 0.187558C6.02617 0.214289 6.03916 0.246961 6.03916 0.285573C6.03916 0.324185 6.02617 0.356857 6.00018 0.383589C5.97419 0.41032 5.94263 0.423686 5.9055 0.423686C5.86689 0.423686 5.83422 0.41032 5.80749 0.383589ZM6.00352 0.621944V1.84268H5.80081V0.621944H6.00352ZM6.57036 1.78476C6.47757 1.73279 6.40481 1.6589 6.35208 1.56311C6.29934 1.46733 6.27298 1.35632 6.27298 1.23009C6.27298 1.10534 6.30009 0.995069 6.35432 0.899282C6.40848 0.803494 6.48242 0.729982 6.57595 0.678746C6.66948 0.627516 6.77421 0.601895 6.89006 0.601895C7.00586 0.601895 7.11058 0.627516 7.20417 0.678746C7.2977 0.729982 7.37158 0.803121 7.42581 0.898169C7.47997 0.993216 7.50709 1.10385 7.50709 1.23009C7.50709 1.35632 7.47923 1.46733 7.42357 1.56311C7.36785 1.6589 7.29248 1.73279 7.19746 1.78476C7.10243 1.83674 6.99696 1.86273 6.88111 1.86273C6.76681 1.86273 6.6632 1.83674 6.57036 1.78476ZM7.08608 1.63329C7.14995 1.59913 7.20156 1.54789 7.24093 1.47958C7.28023 1.41127 7.29994 1.3281 7.29994 1.23009C7.29994 1.13207 7.2806 1.0489 7.24198 0.980592C7.20343 0.912279 7.15293 0.861416 7.09056 0.828002C7.02818 0.794583 6.96058 0.777879 6.88783 0.777879C6.81357 0.777879 6.7456 0.794583 6.68397 0.828002C6.62235 0.861416 6.57297 0.912279 6.53584 0.980592C6.49872 1.0489 6.48019 1.13207 6.48019 1.23009C6.48019 1.32959 6.49834 1.41349 6.53472 1.4818C6.5711 1.55012 6.61973 1.60099 6.68068 1.6344C6.74156 1.66781 6.80835 1.68452 6.88111 1.68452C6.95393 1.68452 7.02221 1.66744 7.08608 1.63329ZM8.73007 0.734441C8.82217 0.824284 8.86819 0.953857 8.86819 1.12316V1.84268H8.66776V1.15212C8.66776 1.03034 8.63728 0.937154 8.5764 0.872553C8.51552 0.807953 8.43231 0.775653 8.32691 0.775653C8.21994 0.775653 8.13493 0.809066 8.07181 0.875893C8.00869 0.94272 7.97716 1.03999 7.97716 1.16771V1.84268H7.77443V0.621944H7.97716V0.795696C8.01727 0.733328 8.07181 0.685058 8.1409 0.650905C8.20993 0.616746 8.28605 0.599668 8.36919 0.599668C8.51776 0.599668 8.63803 0.644593 8.73007 0.734441Z" fill="#0D0D0D"/>
</g>
<defs>
<clipPath id="clip0_207_170">
<rect width="11.6291" height="1.99" fill="white"/>
</clipPath>
</defs>
</svg>
